# xmcd
#
# Track frame offsets: 
#        150
#        19525
#        34680
#        44137
#        53767
#        66304
#        78227
#        91748
#        105500
#        117777
#        132287
#        145133
#        158939
#        171857
#        186270
#        201773
#        214744
#        226691
#        238439
#        251612
#
# Disc length: 3545 seconds
#
# Revision: 0
# Processed by: cddbd v1.5.2PL0 Copyright (c) Steve Scherf et al.
# Submitted via: ExactAudioCopy v0.99pb5
#
DISCID=130dd714
DTITLE=Otis Redding  - 100 Hits Legends - 5 CD Boxset - CD 2
DYEAR=1900
DGENRE=
TTITLE0=Change Gonna Come
TTITLE1=A Woman, A Lover, A Friend
TTITLE2=Home In Your Heart
TTITLE3=Respect
TTITLE4=(I Can't Get No) Satisfaction
TTITLE5=I Want To Thank You
TTITLE6=Down In The Valley
TTITLE7=Its Too Late
TTITLE8=Fa Fa Fa Fa Fa (Sad Song)
TTITLE9=Wonderful World
TTITLE10=Keep Your Arms Around Me
TTITLE11=Nothing Can Change This Love
TTITLE12=You Don't Miss Your Water
TTITLE13=Your One And Only Man
TTITLE14=Rock Me Baby
TTITLE15=634-5789 (Soulsville U.S.A)
TTITLE16=She Put The Hurt On Me
TTITLE17=Lovey Dovey
TTITLE18=For Your Precious Love
TTITLE19=My Lovers Prayer
EXTD=
EXTT0=
EXTT1=
EXTT2=
EXTT3=
EXTT4=
EXTT5=
EXTT6=
EXTT7=
EXTT8=
EXTT9=
EXTT10=
EXTT11=
EXTT12=
EXTT13=
EXTT14=
EXTT15=
EXTT16=
EXTT17=
EXTT18=
EXTT19=
PLAYORDER=
